<svg width="1200" height="720" viewBox="0 0 1200 720" fill="none" xmlns="http://www.w3.org/2000/svg">
  <rect width="1200" height="720" rx="30" fill="#071421" />
  <rect x="30" y="30" width="1140" height="660" rx="24" fill="#0F2131" />
  <rect x="54" y="54" width="1092" height="88" rx="18" fill="#10263A" />
  <rect x="78" y="74" width="225" height="32" rx="12" fill="#F7C67B" />
  <rect x="324" y="74" width="160" height="32" rx="12" fill="#163051" />
  <rect x="500" y="74" width="160" height="32" rx="12" fill="#163051" />
  <rect x="676" y="74" width="160" height="32" rx="12" fill="#163051" />
  <rect x="852" y="74" width="160" height="32" rx="12" fill="#163051" />
  <rect x="54" y="164" width="470" height="196" rx="20" fill="#112A3F" />
  <rect x="66" y="180" width="220" height="20" rx="10" fill="#F7C67B" />
  <rect x="66" y="212" width="320" height="20" rx="10" fill="#1E3E62" />
  <rect x="66" y="244" width="260" height="20" rx="10" fill="#1E3E62" />
  <rect x="54" y="384" width="270" height="140" rx="20" fill="#112A3F" />
  <rect x="354" y="384" width="270" height="140" rx="20" fill="#112A3F" />
  <rect x="654" y="384" width="270" height="140" rx="20" fill="#112A3F" />
  <rect x="954" y="384" width="180" height="140" rx="20" fill="#112A3F" />
  <rect x="560" y="164" width="534" height="196" rx="20" fill="#112A3F" />
  <rect x="584" y="184" width="160" height="24" rx="12" fill="#F7C67B" />
  <rect x="584" y="220" width="220" height="18" rx="9" fill="#1E3E62" />
  <rect x="584" y="250" width="420" height="18" rx="9" fill="#1E3E62" />
  <rect x="584" y="282" width="260" height="18" rx="9" fill="#1E3E62" />
  <circle cx="702" cy="390" r="56" fill="#0E3452" />
  <circle cx="702" cy="390" r="38" fill="#F7C67B" />
  <rect x="860" y="188" width="190" height="110" rx="16" fill="#0E3452" />
  <rect x="892" y="214" width="130" height="14" rx="7" fill="#F7C67B" />
  <rect x="892" y="242" width="90" height="14" rx="7" fill="#B5A37D" />
  <rect x="892" y="272" width="150" height="16" rx="8" fill="#1E3E62" />
  <rect x="687" y="466" width="140" height="18" rx="9" fill="#F7C67B" />
  <rect x="737" y="500" width="180" height="14" rx="7" fill="#1E3E62" />
  <rect x="727" y="530" width="200" height="14" rx="7" fill="#1E3E62" />
  <rect x="754" y="560" width="150" height="14" rx="7" fill="#1E3E62" />
  <text x="70" y="126" fill="#E9E3D8" font-family="Inter, Arial, sans-serif" font-size="22" font-weight="700">AIQA Lab Dashboard</text>
</svg>
